<svg width="150" height="100" viewBox="0 0 2000 1298" fill="none" xmlns="http://www.w3.org/2000/svg">
<mask id="mask0_3_50" style="mask-type:alpha" maskUnits="userSpaceOnUse" x="92" y="0" width="1988" height="490">
<rect x="92" width="1988" height="490" fill="#D9D9D9"/>
</mask>
<g mask="url(#mask0_3_50)">
<path d="M161.931 140.326H847.738L861.781 392.529H820.82C815.359 348.838 808.337 313.533 799.754 286.616C791.172 259.698 778.884 239.023 762.889 224.589C747.285 209.765 727 199.817 702.033 194.746C677.066 189.674 645.663 187.138 607.822 187.138H560.424V943.75H689.159V990.562H317.583V943.75H446.318V187.138H401.846C376.489 187.138 354.058 188.114 334.553 190.064C315.047 192.015 297.883 195.721 283.059 201.182C268.625 206.644 256.141 214.251 245.609 224.004C235.076 233.756 226.103 246.24 218.691 261.454C211.279 276.668 204.842 295.003 199.381 316.459C194.31 337.915 189.823 363.271 185.922 392.529H144.961L161.931 140.326ZM1306.08 715.537C1306.08 749.087 1307.45 780.685 1310.18 810.333C1313.3 839.981 1321.3 865.923 1334.17 888.159C1347.43 910.395 1367.33 928.145 1393.86 941.409C1420.77 954.282 1458.03 960.719 1505.62 960.719C1553.99 960.719 1593 954.087 1622.65 940.824C1652.3 927.17 1675.12 908.64 1691.12 885.234C1707.5 861.437 1718.42 833.545 1723.89 801.556C1729.35 769.177 1732.08 734.262 1732.08 696.812V187.138H1615.05V140.326H1901.19V187.138H1784.74V690.376C1784.74 742.65 1780.45 788.682 1771.87 828.473C1763.29 868.264 1747.88 901.618 1725.64 928.535C1703.4 955.453 1673.37 975.933 1635.53 989.977C1597.69 1003.63 1549.51 1010.46 1490.99 1010.46C1438.72 1010.46 1393.66 1004.8 1355.82 993.488C1317.98 982.175 1286.97 964.62 1262.78 940.824C1238.59 917.027 1220.65 886.794 1208.94 850.124C1197.63 813.064 1191.98 769.177 1191.98 718.463V187.138H1074.94V140.326H1423.11V187.138H1306.08V715.537Z" fill="white"/>
</g>
<mask id="mask1_3_50" style="mask-type:alpha" maskUnits="userSpaceOnUse" x="92" y="736" width="1988" height="562">
<rect x="92" y="736" width="1988" height="562" fill="#D9D9D9"/>
</mask>
<g mask="url(#mask1_3_50)">
<path d="M161.931 127.763H847.738L861.781 379.967H820.82C815.359 336.275 808.337 300.971 799.754 274.053C791.172 247.136 778.884 226.46 762.889 212.026C747.285 197.202 727 187.255 702.033 182.183C677.066 177.112 645.663 174.576 607.822 174.576H560.424V931.187H689.159V978H317.583V931.187H446.318V174.576H401.846C376.489 174.576 354.058 175.551 334.553 177.502C315.047 179.453 297.883 183.159 283.059 188.62C268.625 194.082 256.141 201.689 245.609 211.441C235.076 221.194 226.103 233.677 218.691 248.891C211.279 264.106 204.842 282.441 199.381 303.896C194.31 325.352 189.823 350.709 185.922 379.967H144.961L161.931 127.763ZM1306.08 702.975C1306.08 736.524 1307.45 768.123 1310.18 797.771C1313.3 827.419 1321.3 853.361 1334.17 875.597C1347.43 897.833 1367.33 915.583 1393.86 928.847C1420.77 941.72 1458.03 948.157 1505.62 948.157C1553.99 948.157 1593 941.525 1622.65 928.261C1652.3 914.608 1675.12 896.078 1691.12 872.671C1707.5 848.875 1718.42 820.982 1723.88 788.994C1729.35 756.615 1732.08 721.7 1732.08 684.25V174.576H1615.05V127.763H1901.19V174.576H1784.74V677.813C1784.74 730.087 1780.45 776.12 1771.87 815.911C1763.29 855.702 1747.88 889.056 1725.64 915.973C1703.4 942.89 1673.37 963.371 1635.53 977.415C1597.69 991.069 1549.51 997.895 1490.99 997.895C1438.72 997.895 1393.66 992.239 1355.82 980.926C1317.98 969.613 1286.97 952.058 1262.78 928.261C1238.59 904.465 1220.65 874.232 1208.94 837.562C1197.63 800.502 1191.98 756.615 1191.98 705.901V174.576H1074.94V127.763H1423.11V174.576H1306.08V702.975Z" fill="white"/>
</g>
<path d="M-45.7164 700H-64.4863V543.961H-103.609V541.699H-6.36734V543.961H-45.7164V700ZM38.2184 700H35.5046L103.122 541.699L105.609 540.569L162.598 700H143.375L125.736 650.248H59.702L38.2184 700ZM96.1112 566.123L60.6066 647.987H125.058L96.1112 566.123ZM229.379 543.508C246.867 542.302 262.321 541.699 275.738 541.699C312.977 541.699 331.596 554.137 331.596 579.013C331.596 589.566 329.033 598.989 323.907 607.281C318.781 615.573 309.962 621.076 297.448 623.789L342.677 700H321.646L277.321 625.146H248.149V700H229.379V543.508ZM275.738 543.961C266.994 543.961 257.798 544.488 248.149 545.544V622.885H281.618C302.876 621.98 313.504 607.507 313.504 579.465C313.504 568.007 310.338 559.263 304.006 553.233C297.674 547.051 288.252 543.961 275.738 543.961ZM479.112 700.905C450.92 700.905 430.039 692.914 416.471 676.933C411.646 671.204 407.726 663.591 404.711 654.093C401.696 644.595 400.188 633.061 400.188 619.493C400.188 605.924 402.374 593.788 406.746 583.084C411.269 572.229 417.375 563.861 425.064 557.982C439.99 546.976 458.006 541.473 479.112 541.473C485.897 541.473 492.53 542.001 499.013 543.056C505.496 543.961 510.32 544.941 513.486 545.996L518.235 547.579L517.557 549.84C505.797 545.77 492.983 543.735 479.112 543.735C463.132 543.735 449.789 548.936 439.085 559.338C430.944 567.027 425.215 578.335 421.898 593.26C419.938 601.703 418.958 612.03 418.958 624.242C418.958 636.454 420.692 647.761 424.159 658.163C427.627 668.415 431.547 676.029 435.919 681.004C440.442 685.979 445.869 689.974 452.201 692.99C458.533 695.854 463.584 697.512 467.353 697.965C471.122 698.417 475.57 698.643 480.695 698.643C485.972 698.643 492.983 698.04 501.727 696.834V650.248H474.363V647.987H530.221V650.248H520.497V694.799C509.039 698.869 495.244 700.905 479.112 700.905ZM687.937 541.699V543.961H616.702V611.804H682.736V614.065H616.702V697.739H692.912V700H597.932V541.699H687.937ZM811.952 700H793.182V543.961H754.059V541.699H851.301V543.961H811.952V700ZM1124.27 541.699V543.961H1053.04V616.327H1119.07V618.588H1053.04V700H1034.27V541.699H1124.27ZM1185.42 624.694C1185.42 597.255 1192.05 576.45 1205.32 562.278C1218.74 547.956 1235.93 540.795 1256.88 540.795C1277.84 540.795 1294.5 546.976 1306.86 559.338C1319.37 571.701 1325.63 591.451 1325.63 618.588C1325.63 645.725 1319 666.229 1305.73 680.099C1292.46 693.969 1274.75 700.905 1252.58 700.905C1233.44 700.905 1217.76 695.402 1205.55 684.396C1199.21 678.667 1194.24 670.752 1190.62 660.651C1187.15 650.399 1185.42 638.413 1185.42 624.694ZM1256.2 543.056C1240.98 543.056 1228.46 549.84 1218.66 563.409C1209.01 576.978 1204.19 596.878 1204.19 623.111C1204.19 649.344 1208.79 668.491 1217.98 680.552C1227.18 692.613 1239.39 698.643 1254.62 698.643C1270 698.643 1282.51 691.859 1292.16 678.29C1301.96 664.571 1306.86 644.745 1306.86 618.814C1306.86 592.732 1302.19 573.586 1292.84 561.374C1283.64 549.162 1271.43 543.056 1256.2 543.056ZM1396.86 543.508C1414.34 542.302 1429.8 541.699 1443.22 541.699C1480.45 541.699 1499.07 554.137 1499.07 579.013C1499.07 589.566 1496.51 598.989 1491.38 607.281C1486.26 615.573 1477.44 621.076 1464.93 623.789L1510.15 700H1489.12L1444.8 625.146H1415.63V700H1396.86V543.508ZM1443.22 543.961C1434.47 543.961 1425.27 544.488 1415.63 545.544V622.885H1449.1C1470.35 621.98 1480.98 607.507 1480.98 579.465C1480.98 568.007 1477.82 559.263 1471.48 553.233C1465.15 547.051 1455.73 543.961 1443.22 543.961ZM1786.6 541.699C1789.46 544.564 1790.89 548.257 1790.89 552.78C1790.89 556.549 1790.06 560.394 1788.4 564.314L1747.92 646.404V700H1729.15V651.379L1683.93 541.699H1703.15L1746.34 643.69L1785.69 564.314C1787.35 560.545 1788.18 556.625 1788.18 552.554C1788.18 548.484 1787.05 545.318 1784.79 543.056L1786.6 541.699ZM1848.54 624.694C1848.54 597.255 1855.18 576.45 1868.44 562.278C1881.86 547.956 1899.05 540.795 1920 540.795C1940.96 540.795 1957.62 546.976 1969.98 559.338C1982.5 571.701 1988.75 591.451 1988.75 618.588C1988.75 645.725 1982.12 666.229 1968.85 680.099C1955.58 693.969 1937.87 700.905 1915.71 700.905C1896.56 700.905 1880.88 695.402 1868.67 684.396C1862.34 678.667 1857.36 670.752 1853.74 660.651C1850.28 650.399 1848.54 638.413 1848.54 624.694ZM1919.33 543.056C1904.1 543.056 1891.59 549.84 1881.79 563.409C1872.14 576.978 1867.31 596.878 1867.31 623.111C1867.31 649.344 1871.91 668.491 1881.11 680.552C1890.3 692.613 1902.52 698.643 1917.74 698.643C1933.12 698.643 1945.63 691.859 1955.28 678.29C1965.08 664.571 1969.98 644.745 1969.98 618.814C1969.98 592.732 1965.31 573.586 1955.96 561.374C1946.76 549.162 1934.55 543.056 1919.33 543.056ZM2168.75 541.699H2171.69V632.157C2171.69 655.827 2167.02 673.24 2157.67 684.396C2148.33 695.402 2136.11 700.905 2121.04 700.905C2111.54 700.905 2103.47 700.075 2096.84 698.417C2090.21 696.608 2083.95 693.366 2078.07 688.693C2066.01 679.346 2059.98 660.5 2059.98 632.157V541.699H2078.75V631.931C2078.75 659.369 2082.89 677.687 2091.19 686.884C2095.41 691.407 2099.78 694.497 2104.3 696.156C2108.98 697.814 2114.55 698.643 2121.04 698.643C2135.51 698.643 2147.04 693.366 2155.64 682.813C2164.38 672.109 2168.75 655.148 2168.75 631.931V541.699Z" fill="white"/>
<line x1="963.5" y1="52" x2="963.5" y2="1170" stroke="white" stroke-width="7"/>
</svg>
